<svg width="142" height="46" viewBox="0 0 142 46" fill="none" xmlns="http://www.w3.org/2000/svg"><g id="Vector"><path d="M0 34.4375V0H5.30587V20.0308H16.3499V9.63018H21.6558V34.4375H16.3499V24.0369H5.30587V34.4375H0ZM36.8282 34.8227C33.6053 34.8227 31.0507 34.0394 29.1641 32.473C27.2776 30.8807 26.3343 28.4797 26.3343 25.2696C26.3343 22.3677 27.1204 20.0693 28.6925 18.3744C30.2909 16.6538 32.6621 15.7935 35.8064 15.7935C38.6885 15.7935 40.8895 16.5382 42.4091 18.0277C43.9551 19.4915 44.728 21.4175 44.728 23.8058V27.1186H31.2472C31.5354 28.5824 32.2167 29.5839 33.2909 30.1232C34.3914 30.6625 35.9373 30.9321 37.9286 30.9321C38.9243 30.9321 39.9331 30.8422 40.9549 30.6625C42.0031 30.4828 42.8939 30.2516 43.6277 29.9691V33.6671C42.763 34.0523 41.7541 34.3348 40.6012 34.5146C39.4484 34.72 38.1907 34.8227 36.8282 34.8227ZM31.2472 23.9214H40.0904V22.9198C40.0904 21.8669 39.7759 21.0452 39.147 20.4545C38.5182 19.8382 37.457 19.53 35.9635 19.53C34.208 19.53 32.9765 19.8767 32.269 20.5701C31.5879 21.2634 31.2472 22.3805 31.2472 23.9214ZM58.9161 34.8227C55.5885 34.8227 53.0338 34.0138 51.252 32.3959C49.4965 30.778 48.6187 28.4154 48.6187 25.3081C48.6187 22.098 49.562 19.7098 51.4485 18.1433C53.3612 16.5767 55.9029 15.7935 59.0733 15.7935C60.3834 15.7935 61.51 15.8834 62.4533 16.0631C63.3966 16.2429 64.3137 16.5382 65.2045 16.9491V20.6856C64.5495 20.3775 63.7896 20.1335 62.9249 19.9537C62.0603 19.774 61.1302 19.6841 60.1344 19.6841C58.1431 19.6841 56.6234 20.0949 55.5753 20.9167C54.5273 21.7128 54.0032 23.1766 54.0032 25.3081C54.0032 27.2598 54.4748 28.685 55.4181 29.5839C56.3875 30.4828 57.9466 30.9321 60.0951 30.9321C61.0122 30.9321 61.9031 30.8422 62.7677 30.6625C63.6586 30.4828 64.4839 30.2131 65.2438 29.8535V33.7056C63.4883 34.4504 61.379 34.8227 58.9161 34.8227ZM76.9671 34.8227C74.8186 34.8227 73.2202 34.2706 72.1721 33.1663C71.1503 32.0621 70.6393 30.5598 70.6393 28.6594V20.1849H68.0061V16.1787H70.6393V12.2496L75.9452 10.7088V16.1787H80.6615L80.3471 20.1849H75.9452V28.3127C75.9452 29.3143 76.181 30.0076 76.6527 30.3928C77.1243 30.7524 77.8579 30.9321 78.8536 30.9321C79.5872 30.9321 80.3471 30.8037 81.1332 30.5469V34.1293C80.5568 34.3605 79.9279 34.5274 79.2467 34.6301C78.5654 34.7586 77.8056 34.8227 76.9671 34.8227ZM94.1535 34.8227C90.6686 34.8227 88.114 34.0009 86.4894 32.3574C84.8649 30.6881 84.7466 25.3081 84.7466 25.3081C84.7466 25.3081 84.8649 19.9409 86.4894 18.2973C88.1401 16.6281 90.6948 15.7935 94.1535 15.7935C97.6383 15.7935 100.193 16.6281 101.817 18.2973C103.468 19.9409 104.294 22.2779 104.294 25.3081C104.294 28.3384 103.481 30.6881 101.857 32.3574C100.232 34.0009 97.6645 34.8227 94.1535 34.8227ZM94.1535 30.3928C95.8566 30.3928 97.075 30.0205 97.8086 29.2757C98.5422 28.5053 98.9091 27.1827 98.9091 25.3081C98.9091 23.4335 98.5422 22.1238 97.8086 21.379C97.075 20.6086 95.8566 20.2234 94.1535 20.2234C92.4766 20.2234 91.2712 20.6086 90.5376 21.379C89.804 22.1238 89.4371 23.4335 89.4371 25.3081C89.4371 27.1827 89.804 28.5053 90.5376 29.2757C91.2712 30.0205 92.4766 30.3928 94.1535 30.3928ZM118.28 34.8227C114.795 34.8227 112.241 34.0009 110.616 32.3574C108.992 30.6881 108.179 28.3384 108.179 25.3081C108.179 22.2779 108.992 19.9409 110.616 18.2973C112.267 16.6281 114.822 15.7935 118.28 15.7935C121.765 15.7935 124.32 16.6281 125.944 18.2973C127.595 19.9409 128.421 22.2779 128.421 25.3081C128.421 28.3384 127.607 30.6881 125.984 32.3574C124.359 34.0009 121.791 34.8227 118.28 34.8227ZM118.28 30.3928C119.983 30.3928 121.202 30.0205 121.936 29.2757C122.669 28.5053 123.036 27.1827 123.036 25.3081C123.036 23.4335 122.669 22.1238 121.936 21.379C121.202 20.6086 119.983 20.2234 118.28 20.2234C116.603 20.2234 115.398 20.6086 114.664 21.379C113.931 22.1238 113.564 23.4335 113.564 25.3081C113.564 27.1827 113.931 28.5053 114.664 29.2757C115.398 30.0205 116.603 30.3928 118.28 30.3928Z" fill="#FCFDFF"></path><path d="M134.391 44.3759C135.229 45.1977 136.553 45.6085 138.36 45.6085C139.697 45.6085 140.862 45.4159 141.858 45.0307V41.4483C141.308 41.628 140.692 41.7179 140.011 41.7179C139.512 41.7179 139.133 41.6024 138.871 41.3712C138.609 41.1145 138.478 40.665 138.478 40.023V9.63018H133.172V40.4467C133.172 42.2443 133.578 43.554 134.391 44.3759Z" fill="#FCFDFF"></path></g></svg>