<svg width="38" height="38" viewBox="0 0 31 31" fill="none" xmlns="http://www.w3.org/2000/svg">
<path id="Vector" d="M1.63312e-05 15.2778C1.63312e-05 6.83986 6.83988 0 15.2778 0C23.7157 0 30.5556 6.83986 30.5556 15.2778C30.5556 23.7157 23.7157 30.5556 15.2778 30.5556C12.7342 30.5593 10.2302 29.9253 7.99488 28.7115L1.70425 30.5006C0.696683 30.787 -0.233734 29.8558 0.0527245 28.849L1.84175 22.5561C0.629482 20.3219 -0.00370758 17.8197 1.63312e-05 15.2778ZM9.16668 12.4132C9.16668 12.9403 9.59446 13.3681 10.1215 13.3681H20.434C20.5594 13.3681 20.6836 13.3434 20.7995 13.2954C20.9153 13.2474 21.0206 13.1771 21.1092 13.0884C21.1979 12.9997 21.2682 12.8945 21.3162 12.7786C21.3642 12.6628 21.3889 12.5386 21.3889 12.4132C21.3889 12.2878 21.3642 12.1636 21.3162 12.0478C21.2682 11.9319 21.1979 11.8267 21.1092 11.738C21.0206 11.6493 20.9153 11.579 20.7995 11.531C20.6836 11.483 20.5594 11.4583 20.434 11.4583H10.1215C9.59446 11.4583 9.16668 11.8861 9.16668 12.4132ZM10.1215 17.1875C9.8683 17.1875 9.62543 17.2881 9.44636 17.4672C9.26728 17.6462 9.16668 17.8891 9.16668 18.1424C9.16668 18.3956 9.26728 18.6385 9.44636 18.8176C9.62543 18.9966 9.8683 19.0972 10.1215 19.0972H17.3785C17.6317 19.0972 17.8746 18.9966 18.0537 18.8176C18.2328 18.6385 18.3334 18.3956 18.3334 18.1424C18.3334 17.8891 18.2328 17.6462 18.0537 17.4672C17.8746 17.2881 17.6317 17.1875 17.3785 17.1875H10.1215Z" fill="white"></path>
</svg>